<svg width="32" height="32" viewBox="0 0 32 32" fill="none" xmlns="http://www.w3.org/2000/svg">
<path d="M11.0229 19.5732C10.7775 19.5732 10.6122 19.5972 10.5269 19.6212V21.1919C10.6282 21.2159 10.7549 21.2226 10.9295 21.2226C11.5682 21.2226 11.9615 20.8999 11.9615 20.3546C11.9615 19.8666 11.6229 19.5732 11.0229 19.5732ZM15.6722 19.5892C15.4055 19.5892 15.2322 19.6132 15.1295 19.6372V23.1172C15.2322 23.1412 15.3975 23.1412 15.5469 23.1412C16.6362 23.1492 17.3455 22.5492 17.3455 21.2799C17.3535 20.1732 16.7069 19.5892 15.6722 19.5892Z" fill="#141313"/>
<path d="M18.6668 2.66699H8.00016C7.29292 2.66699 6.61464 2.94794 6.11454 3.44804C5.61445 3.94814 5.3335 4.62641 5.3335 5.33366V26.667C5.3335 27.3742 5.61445 28.0525 6.11454 28.5526C6.61464 29.0527 7.29292 29.3337 8.00016 29.3337H24.0002C24.7074 29.3337 25.3857 29.0527 25.8858 28.5526C26.3859 28.0525 26.6668 27.3742 26.6668 26.667V10.667L18.6668 2.66699ZM12.6642 21.587C12.2522 21.9737 11.6442 22.147 10.9362 22.147C10.7989 22.1485 10.6617 22.1405 10.5255 22.123V24.0243H9.3335V18.7763C9.87144 18.6961 10.415 18.6595 10.9588 18.667C11.7015 18.667 12.2295 18.8083 12.5855 19.0923C12.9242 19.3617 13.1535 19.803 13.1535 20.323C13.1522 20.8457 12.9788 21.287 12.6642 21.587ZM17.7402 23.3937C17.1802 23.859 16.3282 24.0803 15.2868 24.0803C14.6628 24.0803 14.2215 24.0403 13.9215 24.0003V18.7777C14.4596 18.6991 15.003 18.6621 15.5468 18.667C16.5562 18.667 17.2122 18.8483 17.7242 19.235C18.2775 19.6457 18.6242 20.3003 18.6242 21.2403C18.6242 22.2577 18.2522 22.9603 17.7402 23.3937ZM22.6668 19.6937H20.6242V20.9083H22.5335V21.887H20.6242V24.0257H19.4162V18.707H22.6668V19.6937ZM18.6668 12.0003H17.3335V5.33366L24.0002 12.0003H18.6668Z" fill="#141313"/>
</svg>
